# File generated by PlantGL - Wed Jun 19 15:26:47 2024
v    0.000000 0.000000 0.000000
v    0.000000 1.840000 0.000000
v    0.000000 1.840000 1.970000
v    0.000000 0.000000 1.970000

v    2.400000 1.840000 0.000000
v    2.400000 0.000000 0.000000
v    2.400000 0.000000 1.970000
v    2.400000 1.840000 1.970000

v    0.000000 0.000000 1.970000
v    0.000000 1.840000 1.970000
v    0.000000 1.840000 2.180000
v    0.000000 0.000000 2.180000

v    2.400000 1.840000 1.970000
v    2.400000 0.000000 1.970000
v    2.400000 0.000000 2.180000
v    2.400000 1.840000 2.180000

v    0.000000 0.000000 0.000000
v    0.000000 0.000000 1.970000
v    2.400000 0.000000 1.970000
v    2.400000 0.000000 0.000000

v    2.400000 1.840000 0.000000
v    2.400000 1.840000 1.970000
v    0.000000 1.840000 1.970000
v    0.000000 1.840000 0.000000

v    0.000000 0.000000 1.970000
v    0.000000 0.000000 2.180000
v    2.400000 0.000000 2.180000
v    2.400000 0.000000 1.970000

v    2.400000 1.840000 1.970000
v    2.400000 1.840000 2.180000
v    0.000000 1.840000 2.180000
v    0.000000 1.840000 1.970000

v    0.000000 0.000000 0.000000
v    2.400000 0.000000 0.000000
v    2.400000 1.840000 0.000000
v    0.000000 1.840000 0.000000

v    2.400000 1.840000 2.180000
v    2.400000 0.000000 2.180000
v    0.000000 0.000000 2.180000
v    0.000000 1.840000 2.180000

v    0.000000 0.000000 1.700000
v    2.400000 0.000000 1.700000
v    2.400000 1.840000 1.700000
v    0.000000 1.840000 1.700000

v    2.400000 1.840000 1.700000
v    2.400000 0.000000 1.700000
v    0.000000 0.000000 1.700000
v    0.000000 1.840000 1.700000

v    2.000000 0.920000 2.103000
v    0.400000 0.920000 2.103000
v    0.400000 0.920000 2.103000
v    2.000000 0.920000 2.103000

vn    1.000000 0.000000 0.000000
vn    1.000000 0.000000 0.000000
vn    1.000000 0.000000 0.000000
vn    1.000000 0.000000 0.000000

vn    -1.000000 0.000000 0.000000
vn    -1.000000 0.000000 0.000000
vn    -1.000000 0.000000 0.000000
vn    -1.000000 0.000000 0.000000

vn    1.000000 0.000000 0.000000
vn    1.000000 0.000000 0.000000
vn    1.000000 0.000000 0.000000
vn    1.000000 0.000000 0.000000

vn    -1.000000 0.000000 0.000000
vn    -1.000000 0.000000 0.000000
vn    -1.000000 0.000000 0.000000
vn    -1.000000 0.000000 0.000000

vn    0.000000 1.000000 0.000000
vn    0.000000 1.000000 0.000000
vn    0.000000 1.000000 0.000000
vn    0.000000 1.000000 0.000000

vn    0.000000 -1.000000 0.000000
vn    0.000000 -1.000000 0.000000
vn    0.000000 -1.000000 0.000000
vn    0.000000 -1.000000 0.000000

vn    0.000000 1.000000 0.000000
vn    0.000000 1.000000 0.000000
vn    0.000000 1.000000 0.000000
vn    0.000000 1.000000 0.000000

vn    0.000000 -1.000000 0.000000
vn    0.000000 -1.000000 0.000000
vn    0.000000 -1.000000 0.000000
vn    0.000000 -1.000000 0.000000

vn    0.000000 0.000000 1.000000
vn    0.000000 0.000000 1.000000
vn    0.000000 0.000000 1.000000
vn    0.000000 0.000000 1.000000

vn    0.000000 0.000000 -1.000000
vn    0.000000 0.000000 -1.000000
vn    0.000000 0.000000 -1.000000
vn    0.000000 0.000000 -1.000000

vn    0.000000 0.000000 1.000000
vn    0.000000 0.000000 1.000000
vn    0.000000 0.000000 1.000000
vn    0.000000 0.000000 1.000000

vn    0.000000 0.000000 -1.000000
vn    0.000000 0.000000 -1.000000
vn    0.000000 0.000000 -1.000000
vn    0.000000 0.000000 -1.000000

vn    0.000000 0.000000 1.000000
vn    0.000000 0.000000 1.000000
vn    0.000000 0.000000 1.000000
vn    0.000000 0.000000 1.000000

mtllib chamberVide.mtl

usemtl MurBlanc 
o paroiy0 
f 1//1 2//2 3//3
f 1//1 3//3 4//4
usemtl MurBlanc 
o paroiy1 
f 5//5 6//6 7//7
f 5//5 7//7 8//8
usemtl MurBlanc 
o caissony0 
f 9//9 10//10 11//11
f 9//9 11//11 12//12
usemtl MurBlanc 
o caissony1 
f 13//13 14//14 15//15
f 13//13 15//15 16//16
usemtl MurMetal 
o paroix0 
f 17//17 18//18 19//19
f 17//17 19//19 20//20
usemtl MurMetal 
o paroix1 
f 21//21 22//22 23//23
f 21//21 23//23 24//24
usemtl MurMetal 
o caissonx0 
f 25//25 26//26 27//27
f 25//25 27//27 28//28
usemtl MurMetal 
o caissonx1 
f 29//29 30//30 31//31
f 29//29 31//31 32//32
usemtl Sol 
o dallage 
f 33//33 34//34 35//35
f 33//33 35//35 36//36
usemtl Sol 
o hauteur 
f 37//37 38//38 39//39
f 37//37 39//39 40//40
usemtl Sol 
o blocage 
f 41//41 42//42 43//43
f 41//41 43//43 44//44
usemtl Sol 
o blocage2 
f 45//45 46//46 47//47
f 45//45 47//47 48//48
usemtl lum400 
o lamp21Str 
f 49//49 50//50 51//51
f 49//49 51//51 52//52
