# File generated by PlantGL - Wed Jun 19 13:57:22 2024
v    751.000000 188.099996 2103.000000
v    751.000000 185.269135 2095.222272
v    751.000000 178.101142 2091.083830
v    751.000000 169.950002 2092.521096
v    751.000000 164.629723 2098.861558
v    751.000000 164.629723 2107.138442
v    751.000000 169.950002 2113.478904
v    751.000000 178.101142 2114.916170
v    751.000000 185.269135 2110.777728

v    721.000000 187.550000 2103.000000
v    721.000000 184.847813 2110.424197
v    721.000000 178.005636 2114.374530
v    721.000000 170.225000 2113.002593
v    721.000000 165.146550 2106.950333
v    721.000000 165.146550 2099.049667
v    721.000000 170.225000 2092.997407
v    721.000000 178.005636 2091.625470
v    721.000000 184.847813 2095.575803

v    747.193000 176.000000 2103.000000
v    719.620000 176.000000 2103.000000
v    719.620000 176.000000 2103.000000
v    747.193000 176.000000 2103.000000

v    1650.000000 167.900004 2103.000000
v    1650.000000 170.730865 2095.222272
v    1650.000000 177.898858 2091.083830
v    1650.000000 186.049998 2092.521096
v    1650.000000 191.370277 2098.861558
v    1650.000000 191.370277 2107.138442
v    1650.000000 186.049998 2113.478904
v    1650.000000 177.898858 2114.916170
v    1650.000000 170.730865 2110.777728

v    1680.000000 168.450000 2103.000000
v    1680.000000 171.152187 2110.424197
v    1680.000000 177.994364 2114.374530
v    1680.000000 185.775000 2113.002593
v    1680.000000 190.853450 2106.950333
v    1680.000000 190.853450 2099.049667
v    1680.000000 185.775000 2092.997407
v    1680.000000 177.994364 2091.625470
v    1680.000000 171.152187 2095.575803

v    1653.807000 180.000000 2103.000000
v    1681.380000 180.000000 2103.000000
v    1681.380000 180.000000 2103.000000
v    1653.807000 180.000000 2103.000000

v    1659.000000 1644.900004 2100.000000
v    1659.000000 1647.730865 2092.222272
v    1659.000000 1654.898858 2088.083830
v    1659.000000 1663.049998 2089.521096
v    1659.000000 1668.370277 2095.861558
v    1659.000000 1668.370277 2104.138442
v    1659.000000 1663.049998 2110.478904
v    1659.000000 1654.898858 2111.916170
v    1659.000000 1647.730865 2107.777728

v    1689.000000 1645.450000 2100.000000
v    1689.000000 1648.152187 2107.424197
v    1689.000000 1654.994364 2111.374530
v    1689.000000 1662.775000 2110.002593
v    1689.000000 1667.853450 2103.950333
v    1689.000000 1667.853450 2096.049667
v    1689.000000 1662.775000 2089.997407
v    1689.000000 1654.994364 2088.625470
v    1689.000000 1648.152187 2092.575803

v    1662.807000 1657.000000 2100.000000
v    1690.380000 1657.000000 2100.000000
v    1690.380000 1657.000000 2100.000000
v    1662.807000 1657.000000 2100.000000

v    747.000000 1682.099996 2105.000000
v    747.000000 1679.269135 2097.222272
v    747.000000 1672.101142 2093.083830
v    747.000000 1663.950002 2094.521096
v    747.000000 1658.629723 2100.861558
v    747.000000 1658.629723 2109.138442
v    747.000000 1663.950002 2115.478904
v    747.000000 1672.101142 2116.916170
v    747.000000 1679.269135 2112.777728

v    717.000000 1681.550000 2105.000000
v    717.000000 1678.847813 2112.424197
v    717.000000 1672.005636 2116.374530
v    717.000000 1664.225000 2115.002593
v    717.000000 1659.146550 2108.950333
v    717.000000 1659.146550 2101.049667
v    717.000000 1664.225000 2094.997407
v    717.000000 1672.005636 2093.625470
v    717.000000 1678.847813 2097.575803

v    743.193000 1670.000000 2105.000000
v    715.620000 1670.000000 2105.000000
v    715.620000 1670.000000 2105.000000
v    743.193000 1670.000000 2105.000000

vn    -1.000000 0.000000 0.000000
vn    -1.000000 0.000000 0.000000
vn    -1.000000 0.000000 0.000000
vn    -1.000000 0.000000 0.000000
vn    -1.000000 0.000000 0.000000
vn    -1.000000 0.000000 0.000000
vn    -1.000000 0.000000 0.000000
vn    -1.000000 0.000000 0.000000
vn    -1.000000 0.000000 0.000000

vn    1.000000 0.000000 0.000000
vn    1.000000 0.000000 0.000000
vn    1.000000 0.000000 0.000000
vn    1.000000 0.000000 0.000000
vn    1.000000 0.000000 0.000000
vn    1.000000 0.000000 0.000000
vn    1.000000 0.000000 0.000000
vn    1.000000 0.000000 0.000000
vn    1.000000 0.000000 0.000000

vn    0.000000 0.000000 1.000000
vn    0.000000 0.000000 1.000000
vn    0.000000 0.000000 1.000000
vn    0.000000 0.000000 1.000000

vn    1.000000 0.000000 0.000000
vn    1.000000 0.000000 0.000000
vn    1.000000 0.000000 0.000000
vn    1.000000 0.000000 0.000000
vn    1.000000 0.000000 0.000000
vn    1.000000 0.000000 0.000000
vn    1.000000 0.000000 0.000000
vn    1.000000 0.000000 0.000000
vn    1.000000 0.000000 0.000000

vn    -1.000000 0.000000 0.000000
vn    -1.000000 0.000000 0.000000
vn    -1.000000 0.000000 0.000000
vn    -1.000000 0.000000 0.000000
vn    -1.000000 0.000000 0.000000
vn    -1.000000 0.000000 0.000000
vn    -1.000000 0.000000 0.000000
vn    -1.000000 0.000000 0.000000
vn    -1.000000 0.000000 0.000000

vn    0.000000 0.000000 1.000000
vn    0.000000 0.000000 1.000000
vn    0.000000 0.000000 1.000000
vn    0.000000 0.000000 1.000000

vn    1.000000 0.000000 0.000000
vn    1.000000 0.000000 0.000000
vn    1.000000 0.000000 0.000000
vn    1.000000 0.000000 0.000000
vn    1.000000 0.000000 0.000000
vn    1.000000 0.000000 0.000000
vn    1.000000 0.000000 0.000000
vn    1.000000 0.000000 0.000000
vn    1.000000 0.000000 0.000000

vn    -1.000000 0.000000 0.000000
vn    -1.000000 0.000000 0.000000
vn    -1.000000 0.000000 0.000000
vn    -1.000000 0.000000 0.000000
vn    -1.000000 0.000000 0.000000
vn    -1.000000 0.000000 0.000000
vn    -1.000000 0.000000 0.000000
vn    -1.000000 0.000000 0.000000
vn    -1.000000 0.000000 0.000000

vn    0.000000 0.000000 1.000000
vn    0.000000 0.000000 1.000000
vn    0.000000 0.000000 1.000000
vn    0.000000 0.000000 1.000000

vn    -1.000000 0.000000 0.000000
vn    -1.000000 0.000000 0.000000
vn    -1.000000 0.000000 0.000000
vn    -1.000000 0.000000 0.000000
vn    -1.000000 0.000000 0.000000
vn    -1.000000 0.000000 0.000000
vn    -1.000000 0.000000 0.000000
vn    -1.000000 0.000000 0.000000
vn    -1.000000 0.000000 0.000000

vn    1.000000 0.000000 0.000000
vn    1.000000 0.000000 0.000000
vn    1.000000 0.000000 0.000000
vn    1.000000 0.000000 0.000000
vn    1.000000 0.000000 0.000000
vn    1.000000 0.000000 0.000000
vn    1.000000 0.000000 0.000000
vn    1.000000 0.000000 0.000000
vn    1.000000 0.000000 0.000000

vn    0.000000 0.000000 1.000000
vn    0.000000 0.000000 1.000000
vn    0.000000 0.000000 1.000000
vn    0.000000 0.000000 1.000000

mtllib testChamber_onlyLamps.mtl

usemtl ecran 
o lamp20AV 
f 1//1 2//2 3//3
f 1//1 3//3 4//4
f 1//1 4//4 5//5
f 1//1 5//5 6//6
f 1//1 6//6 7//7
f 1//1 7//7 8//8
f 1//1 8//8 9//9
usemtl ecran 
o lamp20AR 
f 10//10 11//11 12//12
f 10//10 12//12 13//13
f 10//10 13//13 14//14
f 10//10 14//14 15//15
f 10//10 15//15 16//16
f 10//10 16//16 17//17
f 10//10 17//17 18//18
usemtl lum400 
o lamp20Str 
f 19//19 20//20 21//21
f 19//19 21//21 22//22
usemtl ecran 
o lamp21AV 
f 23//23 24//24 25//25
f 23//23 25//25 26//26
f 23//23 26//26 27//27
f 23//23 27//27 28//28
f 23//23 28//28 29//29
f 23//23 29//29 30//30
f 23//23 30//30 31//31
usemtl ecran 
o lamp21AR 
f 32//32 33//33 34//34
f 32//32 34//34 35//35
f 32//32 35//35 36//36
f 32//32 36//36 37//37
f 32//32 37//37 38//38
f 32//32 38//38 39//39
f 32//32 39//39 40//40
usemtl lum400 
o lamp21Str 
f 41//41 42//42 43//43
f 41//41 43//43 44//44
usemtl ecran 
o lamp22AV 
f 45//45 46//46 47//47
f 45//45 47//47 48//48
f 45//45 48//48 49//49
f 45//45 49//49 50//50
f 45//45 50//50 51//51
f 45//45 51//51 52//52
f 45//45 52//52 53//53
usemtl ecran 
o lamp22AR 
f 54//54 55//55 56//56
f 54//54 56//56 57//57
f 54//54 57//57 58//58
f 54//54 58//58 59//59
f 54//54 59//59 60//60
f 54//54 60//60 61//61
f 54//54 61//61 62//62
usemtl lum400 
o lamp22Str 
f 63//63 64//64 65//65
f 63//63 65//65 66//66
usemtl ecran 
o lamp23AV 
f 67//67 68//68 69//69
f 67//67 69//69 70//70
f 67//67 70//70 71//71
f 67//67 71//71 72//72
f 67//67 72//72 73//73
f 67//67 73//73 74//74
f 67//67 74//74 75//75
usemtl ecran 
o lamp23AR 
f 76//76 77//77 78//78
f 76//76 78//78 79//79
f 76//76 79//79 80//80
f 76//76 80//80 81//81
f 76//76 81//81 82//82
f 76//76 82//82 83//83
f 76//76 83//83 84//84
usemtl lum400 
o lamp23Str 
f 85//85 86//86 87//87
f 85//85 87//87 88//88
