# File generated by PlantGL - Mon Jun 19 10:52:59 2023
v    0.000000 0.000000 0.000000
v    0.000000 0.000000 1.940000
v    2.400000 0.000000 1.940000
v    2.400000 0.000000 0.000000

v    0.000000 1.840000 0.000000
v    2.400000 1.840000 0.000000
v    2.400000 1.840000 1.940000
v    0.000000 1.840000 1.940000

v    0.000000 0.000000 0.000000
v    0.000000 1.840000 0.000000
v    0.000000 1.840000 1.940000
v    0.000000 0.000000 1.940000

v    2.400000 0.000000 0.000000
v    2.400000 0.000000 1.940000
v    2.400000 1.840000 1.940000
v    2.400000 1.840000 0.000000

v    0.060000 0.060000 1.940000
v    0.060000 0.060000 2.150000
v    2.340000 0.060000 2.150000
v    2.340000 0.060000 1.940000

v    0.060000 0.000000 1.940000
v    0.060000 0.060000 1.940000
v    2.340000 0.060000 1.940000
v    2.340000 0.000000 1.940000

v    0.060000 1.780000 1.940000
v    2.340000 1.780000 1.940000
v    2.340000 1.780000 2.150000
v    0.060000 1.780000 2.150000

v    0.060000 1.780000 1.940000
v    0.060000 1.840000 1.940000
v    2.340000 1.840000 1.940000
v    2.340000 1.780000 1.940000

v    0.060000 0.060000 1.940000
v    0.060000 1.780000 1.940000
v    0.060000 1.780000 2.150000
v    0.060000 0.060000 2.150000

v    0.000000 0.000000 1.940000
v    0.000000 1.840000 1.940000
v    0.060000 1.840000 1.940000
v    0.060000 0.000000 1.940000

v    2.340000 0.060000 1.940000
v    2.340000 0.060000 2.150000
v    2.340000 1.780000 2.150000
v    2.340000 1.780000 1.940000

v    2.400000 0.000000 1.940000
v    2.340000 0.000000 1.940000
v    2.340000 1.840000 1.940000
v    2.400000 1.840000 1.940000

v    0.060000 0.060000 2.150000
v    0.060000 1.780000 2.150000
v    0.800000 1.780000 2.150000
v    0.800000 0.060000 2.150000

v    0.800000 1.360000 2.150000
v    0.800000 1.780000 2.150000
v    1.600000 1.780000 2.150000
v    1.600000 1.360000 2.150000

v    1.600000 1.780000 2.150000
v    2.340000 1.780000 2.150000
v    2.340000 0.060000 2.150000
v    1.600000 0.060000 2.150000

v    0.800000 0.060000 2.150000
v    0.800000 0.480000 2.150000
v    1.600000 0.480000 2.150000
v    1.600000 0.060000 2.150000

v    0.800000 0.480000 2.150000
v    0.800000 1.360000 2.150000
v    1.600000 1.360000 2.150000
v    1.600000 0.480000 2.150000

v    0.000000 0.000000 0.000000
v    2.400000 0.000000 0.000000
v    2.400000 1.840000 0.000000
v    0.000000 1.840000 0.000000

v    0.000000 0.470000 0.900000
v    2.040000 0.470000 0.900000
v    2.040000 1.370000 0.900000
v    0.000000 1.370000 0.900000

v    0.000000 0.470000 0.860000
v    0.000000 1.370000 0.860000
v    2.040000 1.370000 0.860000
v    2.040000 0.470000 0.860000

v    0.000000 1.370000 0.860000
v    0.000000 1.370000 0.900000
v    2.040000 1.370000 0.900000
v    2.040000 1.370000 0.860000

v    0.000000 0.470000 0.900000
v    0.000000 0.470000 0.860000
v    2.040000 0.470000 0.860000
v    2.040000 0.470000 0.900000

v    2.040000 0.470000 0.900000
v    2.040000 0.470000 0.860000
v    2.040000 1.370000 0.860000
v    2.040000 1.370000 0.900000

v    0.000000 0.470000 0.860000
v    0.000000 0.470000 0.900000
v    0.000000 1.370000 0.900000
v    0.000000 1.370000 0.860000

v    0.756250 0.177000 2.060000
v    0.756250 0.174195 2.052290
v    0.756250 0.167092 2.048184
v    0.756250 0.159011 2.049601
v    0.756250 0.153730 2.055880
v    0.756250 0.153716 2.064084
v    0.756250 0.158978 2.070380
v    0.756250 0.167054 2.071823
v    0.756250 0.174171 2.067739

v    0.743750 0.177000 2.060000
v    0.743750 0.174195 2.067710
v    0.743750 0.167092 2.071816
v    0.743750 0.159011 2.070399
v    0.743750 0.153730 2.064120
v    0.743750 0.153716 2.055916
v    0.743750 0.158978 2.049620
v    0.743750 0.167054 2.048177
v    0.743750 0.174171 2.052261

v    0.756250 1.687000 2.060000
v    0.756250 1.684195 2.052290
v    0.756250 1.677092 2.048184
v    0.756250 1.669011 2.049601
v    0.756250 1.663730 2.055880
v    0.756250 1.663716 2.064084
v    0.756250 1.668978 2.070380
v    0.756250 1.677054 2.071823
v    0.756250 1.684171 2.067739

v    0.743750 1.687000 2.060000
v    0.743750 1.684195 2.067710
v    0.743750 1.677092 2.071816
v    0.743750 1.669011 2.070399
v    0.743750 1.663730 2.064120
v    0.743750 1.663716 2.055916
v    0.743750 1.668978 2.049620
v    0.743750 1.677054 2.048177
v    0.743750 1.684171 2.052261

v    1.656250 0.177000 2.060000
v    1.656250 0.174195 2.052290
v    1.656250 0.167092 2.048184
v    1.656250 0.159011 2.049601
v    1.656250 0.153730 2.055880
v    1.656250 0.153716 2.064084
v    1.656250 0.158978 2.070380
v    1.656250 0.167054 2.071823
v    1.656250 0.174171 2.067739

v    1.643750 0.177000 2.060000
v    1.643750 0.174195 2.067710
v    1.643750 0.167092 2.071816
v    1.643750 0.159011 2.070399
v    1.643750 0.153730 2.064120
v    1.643750 0.153716 2.055916
v    1.643750 0.158978 2.049620
v    1.643750 0.167054 2.048177
v    1.643750 0.174171 2.052261

v    1.656250 1.687000 2.060000
v    1.656250 1.684195 2.052290
v    1.656250 1.677092 2.048184
v    1.656250 1.669011 2.049601
v    1.656250 1.663730 2.055880
v    1.656250 1.663716 2.064084
v    1.656250 1.668978 2.070380
v    1.656250 1.677054 2.071823
v    1.656250 1.684171 2.067739

v    1.643750 1.687000 2.060000
v    1.643750 1.684195 2.067710
v    1.643750 1.677092 2.071816
v    1.643750 1.669011 2.070399
v    1.643750 1.663730 2.064120
v    1.643750 1.663716 2.055916
v    1.643750 1.668978 2.049620
v    1.643750 1.677054 2.048177
v    1.643750 1.684171 2.052261

vn    0.000000 1.000000 0.000000
vn    0.000000 1.000000 0.000000
vn    0.000000 1.000000 0.000000
vn    0.000000 1.000000 0.000000

vn    0.000000 -1.000000 0.000000
vn    0.000000 -1.000000 0.000000
vn    0.000000 -1.000000 0.000000
vn    0.000000 -1.000000 0.000000

vn    1.000000 0.000000 0.000000
vn    1.000000 0.000000 0.000000
vn    1.000000 0.000000 0.000000
vn    1.000000 0.000000 0.000000

vn    -1.000000 0.000000 0.000000
vn    -1.000000 0.000000 0.000000
vn    -1.000000 0.000000 0.000000
vn    -1.000000 0.000000 0.000000

vn    0.000000 1.000000 0.000000
vn    0.000000 1.000000 0.000000
vn    0.000000 1.000000 0.000000
vn    0.000000 1.000000 0.000000

vn    0.000000 0.000000 -1.000000
vn    0.000000 0.000000 -1.000000
vn    0.000000 0.000000 -1.000000
vn    0.000000 0.000000 -1.000000

vn    0.000000 -1.000000 0.000000
vn    0.000000 -1.000000 0.000000
vn    0.000000 -1.000000 0.000000
vn    0.000000 -1.000000 0.000000

vn    0.000000 0.000000 -1.000000
vn    0.000000 0.000000 -1.000000
vn    0.000000 0.000000 -1.000000
vn    0.000000 0.000000 -1.000000

vn    1.000000 0.000000 0.000000
vn    1.000000 0.000000 0.000000
vn    1.000000 0.000000 0.000000
vn    1.000000 0.000000 0.000000

vn    0.000000 0.000000 -1.000000
vn    0.000000 0.000000 -1.000000
vn    0.000000 0.000000 -1.000000
vn    0.000000 0.000000 -1.000000

vn    -1.000000 0.000000 0.000000
vn    -1.000000 0.000000 0.000000
vn    -1.000000 0.000000 0.000000
vn    -1.000000 0.000000 0.000000

vn    0.000000 0.000000 -1.000000
vn    0.000000 0.000000 -1.000000
vn    0.000000 0.000000 -1.000000
vn    0.000000 0.000000 -1.000000

vn    0.000000 0.000000 -1.000000
vn    0.000000 0.000000 -1.000000
vn    0.000000 0.000000 -1.000000
vn    0.000000 0.000000 -1.000000

vn    0.000000 0.000000 -1.000000
vn    0.000000 0.000000 -1.000000
vn    0.000000 0.000000 -1.000000
vn    0.000000 0.000000 -1.000000

vn    0.000000 0.000000 -1.000000
vn    0.000000 0.000000 -1.000000
vn    0.000000 0.000000 -1.000000
vn    0.000000 0.000000 -1.000000

vn    0.000000 0.000000 -1.000000
vn    0.000000 0.000000 -1.000000
vn    0.000000 0.000000 -1.000000
vn    0.000000 0.000000 -1.000000

vn    0.000000 0.000000 -1.000000
vn    0.000000 0.000000 -1.000000
vn    0.000000 0.000000 -1.000000
vn    0.000000 0.000000 -1.000000

vn    0.000000 0.000000 1.000000
vn    0.000000 0.000000 1.000000
vn    0.000000 0.000000 1.000000
vn    0.000000 0.000000 1.000000

vn    0.000000 0.000000 1.000000
vn    0.000000 0.000000 1.000000
vn    0.000000 0.000000 1.000000
vn    0.000000 0.000000 1.000000

vn    0.000000 0.000000 -1.000000
vn    0.000000 0.000000 -1.000000
vn    0.000000 0.000000 -1.000000
vn    0.000000 0.000000 -1.000000

vn    0.000000 1.000000 0.000000
vn    0.000000 1.000000 0.000000
vn    0.000000 1.000000 0.000000
vn    0.000000 1.000000 0.000000

vn    0.000000 -1.000000 0.000000
vn    0.000000 -1.000000 0.000000
vn    0.000000 -1.000000 0.000000
vn    0.000000 -1.000000 0.000000

vn    1.000000 0.000000 0.000000
vn    1.000000 0.000000 0.000000
vn    1.000000 0.000000 0.000000
vn    1.000000 0.000000 0.000000

vn    -1.000000 0.000000 0.000000
vn    -1.000000 0.000000 0.000000
vn    -1.000000 0.000000 0.000000
vn    -1.000000 0.000000 0.000000

vn    -1.000000 0.000000 0.000000
vn    -1.000000 0.000000 0.000000
vn    -1.000000 0.000000 0.000000
vn    -1.000000 0.000000 0.000000
vn    -1.000000 0.000000 0.000000
vn    -1.000000 0.000000 0.000000
vn    -1.000000 0.000000 0.000000
vn    -1.000000 0.000000 0.000000
vn    -1.000000 0.000000 0.000000

vn    1.000000 0.000000 0.000000
vn    1.000000 0.000000 0.000000
vn    1.000000 0.000000 0.000000
vn    1.000000 0.000000 0.000000
vn    1.000000 0.000000 0.000000
vn    1.000000 0.000000 0.000000
vn    1.000000 0.000000 0.000000
vn    1.000000 0.000000 0.000000
vn    1.000000 0.000000 0.000000

vn    -1.000000 0.000000 0.000000
vn    -1.000000 0.000000 0.000000
vn    -1.000000 0.000000 0.000000
vn    -1.000000 0.000000 0.000000
vn    -1.000000 0.000000 0.000000
vn    -1.000000 0.000000 0.000000
vn    -1.000000 0.000000 0.000000
vn    -1.000000 0.000000 0.000000
vn    -1.000000 0.000000 0.000000

vn    1.000000 0.000000 0.000000
vn    1.000000 0.000000 0.000000
vn    1.000000 0.000000 0.000000
vn    1.000000 0.000000 0.000000
vn    1.000000 0.000000 0.000000
vn    1.000000 0.000000 0.000000
vn    1.000000 0.000000 0.000000
vn    1.000000 0.000000 0.000000
vn    1.000000 0.000000 0.000000

vn    -1.000000 0.000000 0.000000
vn    -1.000000 0.000000 0.000000
vn    -1.000000 0.000000 0.000000
vn    -1.000000 0.000000 0.000000
vn    -1.000000 0.000000 0.000000
vn    -1.000000 0.000000 0.000000
vn    -1.000000 0.000000 0.000000
vn    -1.000000 0.000000 0.000000
vn    -1.000000 0.000000 0.000000

vn    1.000000 0.000000 0.000000
vn    1.000000 0.000000 0.000000
vn    1.000000 0.000000 0.000000
vn    1.000000 0.000000 0.000000
vn    1.000000 0.000000 0.000000
vn    1.000000 0.000000 0.000000
vn    1.000000 0.000000 0.000000
vn    1.000000 0.000000 0.000000
vn    1.000000 0.000000 0.000000

vn    -1.000000 0.000000 0.000000
vn    -1.000000 0.000000 0.000000
vn    -1.000000 0.000000 0.000000
vn    -1.000000 0.000000 0.000000
vn    -1.000000 0.000000 0.000000
vn    -1.000000 0.000000 0.000000
vn    -1.000000 0.000000 0.000000
vn    -1.000000 0.000000 0.000000
vn    -1.000000 0.000000 0.000000

vn    1.000000 0.000000 0.000000
vn    1.000000 0.000000 0.000000
vn    1.000000 0.000000 0.000000
vn    1.000000 0.000000 0.000000
vn    1.000000 0.000000 0.000000
vn    1.000000 0.000000 0.000000
vn    1.000000 0.000000 0.000000
vn    1.000000 0.000000 0.000000
vn    1.000000 0.000000 0.000000

mtllib env.mtl

usemtl cloison_Alu 
o mur_gauche 
f 1//1 2//2 3//3
f 1//1 3//3 4//4
usemtl cloison_Alu 
o mur_droit 
f 5//5 6//6 7//7
f 5//5 7//7 8//8
usemtl cloison_Plastique 
o mur_arriere 
f 9//9 10//10 11//11
f 9//9 11//11 12//12
usemtl cloison_Plastique 
o mur_avant 
f 13//13 14//14 15//15
f 13//13 15//15 16//16
usemtl mirroir 
o mur_gauche_plafond 
f 17//17 18//18 19//19
f 17//17 19//19 20//20
usemtl mirroir 
o plafond_mur_gauche 
f 21//21 22//22 23//23
f 21//21 23//23 24//24
usemtl mirroir 
o mur_droit_plafond 
f 25//25 26//26 27//27
f 25//25 27//27 28//28
usemtl mirroir 
o plafond_mur_droit 
f 29//29 30//30 31//31
f 29//29 31//31 32//32
usemtl mirroir 
o mur_arriere_plafond 
f 33//33 34//34 35//35
f 33//33 35//35 36//36
usemtl mirroir 
o plafond_mur_arriere 
f 37//37 38//38 39//39
f 37//37 39//39 40//40
usemtl mirroir 
o mur_avant_plafond 
f 41//41 42//42 43//43
f 41//41 43//43 44//44
usemtl mirroir 
o plafond_mur_avant 
f 45//45 46//46 47//47
f 45//45 47//47 48//48
usemtl mirroir 
o plafond1 
f 49//49 50//50 51//51
f 49//49 51//51 52//52
usemtl mirroir 
o plafond2 
f 53//53 54//54 55//55
f 53//53 55//55 56//56
usemtl mirroir 
o plafond3 
f 57//57 58//58 59//59
f 57//57 59//59 60//60
usemtl mirroir 
o plafond4 
f 61//61 62//62 63//63
f 61//61 63//63 64//64
usemtl mat_Centre 
o plafond_Centre 
f 65//65 66//66 67//67
f 65//65 67//67 68//68
usemtl carrelage 
o sol 
f 69//69 70//70 71//71
f 69//69 71//71 72//72
usemtl mat_table 
o table 
f 73//73 74//74 75//75
f 73//73 75//75 76//76
usemtl mat_table 
o table_dessous 
f 77//77 78//78 79//79
f 77//77 79//79 80//80
usemtl mat_table 
o table_cote_droit 
f 81//81 82//82 83//83
f 81//81 83//83 84//84
usemtl mat_table 
o table_cote_gauche 
f 85//85 86//86 87//87
f 85//85 87//87 88//88
usemtl mat_table 
o table_cote_avant 
f 89//89 90//90 91//91
f 89//89 91//91 92//92
usemtl mat_table 
o table_cote_arriere 
f 93//93 94//94 95//95
f 93//93 95//95 96//96
usemtl EcranTotal 
o CAvantZ1 
f 97//97 98//98 99//99
f 100//100 101//101 102//102
f 103//103 104//104 105//105
usemtl EcranTotal 
o CArriereZ1 
f 106//106 107//107 108//108
f 109//109 110//110 111//111
f 112//112 113//113 114//114
usemtl EcranTotal 
o CAvantZ2 
f 115//115 116//116 117//117
f 118//118 119//119 120//120
f 121//121 122//122 123//123
usemtl EcranTotal 
o CArriereZ2 
f 124//124 125//125 126//126
f 127//127 128//128 129//129
f 130//130 131//131 132//132
usemtl EcranTotal 
o CAvantZ3 
f 133//133 134//134 135//135
f 136//136 137//137 138//138
f 139//139 140//140 141//141
usemtl EcranTotal 
o CArriereZ3 
f 142//142 143//143 144//144
f 145//145 146//146 147//147
f 148//148 149//149 150//150
usemtl EcranTotal 
o CAvantZ4 
f 151//151 152//152 153//153
f 154//154 155//155 156//156
f 157//157 158//158 159//159
usemtl EcranTotal 
o CArriereZ4 
f 160//160 161//161 162//162
f 163//163 164//164 165//165
f 166//166 167//167 168//168
