# File generated by PlantGL - Mon Sep 18 23:39:11 2023
v    0.000000 0.000000 -0.000000
v    0.000000 0.000000 -3.880000
v    4.270000 0.000000 -3.880000
v    4.270000 0.000000 -0.000000

v    4.270000 0.000000 -0.000000
v    4.270000 0.000000 -2.800000
v    6.330000 0.000000 -2.800000
v    6.330000 0.000000 -0.000000

v    6.330000 0.000000 -0.480000
v    6.330000 0.000000 -2.800000
v    6.590000 0.000000 -2.800000
v    6.590000 0.000000 -0.480000

v    4.270000 2.700000 -0.000000
v    4.270000 2.700000 -3.880000
v    0.000000 2.700000 -3.880000
v    0.000000 2.700000 -0.000000

v    6.330000 2.700000 -0.000000
v    6.330000 2.700000 -2.800000
v    4.270000 2.700000 -2.800000
v    4.270000 2.700000 -0.000000

v    6.590000 2.700000 -0.480000
v    6.590000 2.700000 -2.800000
v    6.330000 2.700000 -2.800000
v    6.330000 2.700000 -0.480000

v    0.000000 0.000000 -0.000000
v    0.000000 2.700000 -0.000000
v    0.000000 2.700000 -3.880000
v    0.000000 0.000000 -3.880000

v    0.000000 0.000000 -3.880000
v    0.000000 2.700000 -3.880000
v    4.270000 2.700000 -3.880000
v    4.270000 0.000000 -3.880000

v    4.270000 0.000000 -3.880000
v    4.270000 2.700000 -3.880000
v    4.270000 2.700000 -2.800000
v    4.270000 0.000000 -2.800000

v    4.270000 0.000000 -2.800000
v    4.270000 2.700000 -2.800000
v    6.590000 2.700000 -2.800000
v    6.590000 0.000000 -2.800000

v    6.590000 0.000000 -2.800000
v    6.590000 2.700000 -2.800000
v    6.590000 2.700000 -0.480000
v    6.590000 0.000000 -0.480000

v    6.590000 0.000000 -0.480000
v    6.590000 2.700000 -0.480000
v    6.330000 2.700000 -0.480000
v    6.330000 0.000000 -0.480000

v    6.330000 0.000000 -0.480000
v    6.330000 2.700000 -0.480000
v    6.330000 2.700000 -0.000000
v    6.330000 0.000000 -0.000000

v    6.330000 0.000000 -0.000000
v    6.330000 2.700000 -0.000000
v    0.000000 2.700000 -0.000000
v    0.000000 0.000000 -0.000000

v    0.000000 0.270000 -0.150000
v    0.000000 0.270000 -0.550000
v    6.300000 0.270000 -0.550000
v    6.300000 0.270000 -0.150000

v    0.000000 0.270000 -0.150000
v    6.300000 0.270000 -0.150000
v    6.300000 0.330000 -0.150000
v    0.000000 0.330000 -0.150000

v    0.000000 0.270000 -0.550000
v    0.000000 0.170000 -0.550000
v    6.300000 0.170000 -0.550000
v    6.300000 0.270000 -0.550000

v    0.000000 0.870000 -0.150000
v    0.000000 0.870000 -0.550000
v    6.300000 0.870000 -0.550000
v    6.300000 0.870000 -0.150000

v    0.000000 0.870000 -0.150000
v    6.300000 0.870000 -0.150000
v    6.300000 0.930000 -0.150000
v    0.000000 0.930000 -0.150000

v    0.000000 0.870000 -0.550000
v    0.000000 0.770000 -0.550000
v    6.300000 0.770000 -0.550000
v    6.300000 0.870000 -0.550000

v    6.300000 2.520000 -0.150000
v    6.300000 2.520000 -0.550000
v    0.000000 2.520000 -0.550000
v    0.000000 2.520000 -0.150000

v    6.300000 2.520000 -0.550000
v    6.300000 2.460000 -0.550000
v    0.000000 2.460000 -0.550000
v    0.000000 2.520000 -0.550000

v    0.000000 2.520000 -0.550000
v    0.000000 2.460000 -0.550000
v    6.300000 2.460000 -0.550000
v    6.300000 2.520000 -0.550000

v    0.000000 0.270000 -3.330000
v    0.000000 0.270000 -3.730000
v    4.270000 0.270000 -3.730000
v    4.270000 0.270000 -3.330000

v    0.000000 0.270000 -3.730000
v    0.000000 0.330000 -3.730000
v    4.270000 0.330000 -3.730000
v    4.270000 0.270000 -3.730000

v    0.000000 0.270000 -3.330000
v    4.270000 0.270000 -3.330000
v    4.270000 0.170000 -3.330000
v    0.000000 0.170000 -3.330000

v    0.000000 0.870000 -3.730000
v    4.270000 0.870000 -3.730000
v    4.270000 0.870000 -3.330000
v    0.000000 0.870000 -3.330000

v    0.000000 0.870000 -3.730000
v    0.000000 0.930000 -3.730000
v    4.270000 0.930000 -3.730000
v    4.270000 0.870000 -3.730000

v    0.000000 0.870000 -3.330000
v    4.270000 0.870000 -3.330000
v    4.270000 0.770000 -3.330000
v    0.000000 0.770000 -3.330000

v    4.270000 2.520000 -3.330000
v    4.270000 2.520000 -3.730000
v    0.000000 2.520000 -3.730000
v    0.000000 2.520000 -3.330000

v    0.000000 2.460000 -3.330000
v    4.270000 2.460000 -3.330000
v    4.270000 2.520000 -3.330000
v    0.000000 2.520000 -3.330000

v    3.050000 0.880000 -0.150000
v    3.050000 0.880000 -0.550000
v    3.200000 0.880000 -0.550000
v    3.200000 0.880000 -0.150000

v    0.210000 0.850000 -0.860000

v    0.250000 0.850000 -0.860000

v    0.290000 0.850000 -0.860000

v    0.330000 0.850000 -0.860000

v    0.370000 0.850000 -0.860000

v    0.410000 0.850000 -0.860000

v    0.450000 0.850000 0.860000

v    0.490000 0.850000 0.860000

vn    0.000000 1.000000 0.000000
vn    0.000000 1.000000 0.000000
vn    0.000000 1.000000 0.000000
vn    0.000000 1.000000 0.000000

vn    0.000000 1.000000 0.000000
vn    0.000000 1.000000 0.000000
vn    0.000000 1.000000 0.000000
vn    0.000000 1.000000 0.000000

vn    0.000000 1.000000 0.000000
vn    0.000000 1.000000 0.000000
vn    0.000000 1.000000 0.000000
vn    0.000000 1.000000 0.000000

vn    0.000000 -1.000000 0.000000
vn    0.000000 -1.000000 0.000000
vn    0.000000 -1.000000 0.000000
vn    0.000000 -1.000000 0.000000

vn    0.000000 -1.000000 0.000000
vn    0.000000 -1.000000 0.000000
vn    0.000000 -1.000000 0.000000
vn    0.000000 -1.000000 0.000000

vn    0.000000 -1.000000 0.000000
vn    0.000000 -1.000000 0.000000
vn    0.000000 -1.000000 0.000000
vn    0.000000 -1.000000 0.000000

vn    1.000000 0.000000 0.000000
vn    1.000000 0.000000 0.000000
vn    1.000000 0.000000 0.000000
vn    1.000000 0.000000 0.000000

vn    0.000000 0.000000 1.000000
vn    0.000000 0.000000 1.000000
vn    0.000000 0.000000 1.000000
vn    0.000000 0.000000 1.000000

vn    -1.000000 0.000000 0.000000
vn    -1.000000 0.000000 0.000000
vn    -1.000000 0.000000 0.000000
vn    -1.000000 0.000000 0.000000

vn    0.000000 0.000000 1.000000
vn    0.000000 0.000000 1.000000
vn    0.000000 0.000000 1.000000
vn    0.000000 0.000000 1.000000

vn    -1.000000 0.000000 0.000000
vn    -1.000000 0.000000 0.000000
vn    -1.000000 0.000000 0.000000
vn    -1.000000 0.000000 0.000000

vn    0.000000 0.000000 -1.000000
vn    0.000000 0.000000 -1.000000
vn    0.000000 0.000000 -1.000000
vn    0.000000 0.000000 -1.000000

vn    -1.000000 0.000000 0.000000
vn    -1.000000 0.000000 0.000000
vn    -1.000000 0.000000 0.000000
vn    -1.000000 0.000000 0.000000

vn    0.000000 0.000000 -1.000000
vn    0.000000 0.000000 -1.000000
vn    0.000000 0.000000 -1.000000
vn    0.000000 0.000000 -1.000000

vn    0.000000 1.000000 0.000000
vn    0.000000 1.000000 0.000000
vn    0.000000 1.000000 0.000000
vn    0.000000 1.000000 0.000000

vn    0.000000 0.000000 -1.000000
vn    0.000000 0.000000 -1.000000
vn    0.000000 0.000000 -1.000000
vn    0.000000 0.000000 -1.000000

vn    0.000000 0.000000 -1.000000
vn    0.000000 0.000000 -1.000000
vn    0.000000 0.000000 -1.000000
vn    0.000000 0.000000 -1.000000

vn    0.000000 1.000000 0.000000
vn    0.000000 1.000000 0.000000
vn    0.000000 1.000000 0.000000
vn    0.000000 1.000000 0.000000

vn    0.000000 0.000000 -1.000000
vn    0.000000 0.000000 -1.000000
vn    0.000000 0.000000 -1.000000
vn    0.000000 0.000000 -1.000000

vn    0.000000 0.000000 -1.000000
vn    0.000000 0.000000 -1.000000
vn    0.000000 0.000000 -1.000000
vn    0.000000 0.000000 -1.000000

vn    0.000000 -1.000000 0.000000
vn    0.000000 -1.000000 0.000000
vn    0.000000 -1.000000 0.000000
vn    0.000000 -1.000000 0.000000

vn    0.000000 0.000000 1.000000
vn    0.000000 0.000000 1.000000
vn    0.000000 0.000000 1.000000
vn    0.000000 0.000000 1.000000

vn    0.000000 0.000000 -1.000000
vn    0.000000 0.000000 -1.000000
vn    0.000000 0.000000 -1.000000
vn    0.000000 0.000000 -1.000000

vn    0.000000 1.000000 0.000000
vn    0.000000 1.000000 0.000000
vn    0.000000 1.000000 0.000000
vn    0.000000 1.000000 0.000000

vn    0.000000 0.000000 1.000000
vn    0.000000 0.000000 1.000000
vn    0.000000 0.000000 1.000000
vn    0.000000 0.000000 1.000000

vn    0.000000 0.000000 1.000000
vn    0.000000 0.000000 1.000000
vn    0.000000 0.000000 1.000000
vn    0.000000 0.000000 1.000000

vn    0.000000 1.000000 0.000000
vn    0.000000 1.000000 0.000000
vn    0.000000 1.000000 0.000000
vn    0.000000 1.000000 0.000000

vn    0.000000 0.000000 1.000000
vn    0.000000 0.000000 1.000000
vn    0.000000 0.000000 1.000000
vn    0.000000 0.000000 1.000000

vn    0.000000 0.000000 1.000000
vn    0.000000 0.000000 1.000000
vn    0.000000 0.000000 1.000000
vn    0.000000 0.000000 1.000000

vn    0.000000 -1.000000 0.000000
vn    0.000000 -1.000000 0.000000
vn    0.000000 -1.000000 0.000000
vn    0.000000 -1.000000 0.000000

vn    0.000000 0.000000 -1.000000
vn    0.000000 0.000000 -1.000000
vn    0.000000 0.000000 -1.000000
vn    0.000000 0.000000 -1.000000

vn    0.000000 1.000000 0.000000
vn    0.000000 1.000000 0.000000
vn    0.000000 1.000000 0.000000
vn    0.000000 1.000000 0.000000

vn    1.000000 0.000000 0.000000

vn    1.000000 0.000000 0.000000

vn    1.000000 0.000000 0.000000

vn    1.000000 0.000000 0.000000

vn    1.000000 0.000000 0.000000

vn    1.000000 0.000000 0.000000

vn    1.000000 0.000000 0.000000

vn    1.000000 0.000000 0.000000

mtllib chambre2.mtl

usemtl Sol 
o sol_1 
f 1//1 3//3 2//2
f 1//1 4//4 3//3
usemtl Sol 
o sol_2 
f 5//5 7//7 6//6
f 5//5 8//8 7//7
usemtl Sol 
o sol_3 
f 9//9 11//11 10//10
f 9//9 12//12 11//11
usemtl MurBlanc 
o plafond_1 
f 13//13 15//15 14//14
f 13//13 16//16 15//15
usemtl MurBlanc 
o plafond_2 
f 17//17 19//19 18//18
f 17//17 20//20 19//19
usemtl MurBlanc 
o plafond_3 
f 21//21 23//23 22//22
f 21//21 24//24 23//23
usemtl MurBlanc 
o mur_1 
f 25//25 27//27 26//26
f 25//25 28//28 27//27
usemtl MurBlanc 
o mur_2 
f 29//29 31//31 30//30
f 29//29 32//32 31//31
usemtl MurBlanc 
o mur_3 
f 33//33 35//35 34//34
f 33//33 36//36 35//35
usemtl MurBlanc 
o mur_4 
f 37//37 39//39 38//38
f 37//37 40//40 39//39
usemtl MurBlanc 
o mur_5 
f 41//41 43//43 42//42
f 41//41 44//44 43//43
usemtl MurBlanc 
o mur_6 
f 45//45 47//47 46//46
f 45//45 48//48 47//47
usemtl MurBlanc 
o mur_7 
f 49//49 51//51 50//50
f 49//49 52//52 51//51
usemtl MurBlanc 
o mur_8 
f 53//53 55//55 54//54
f 53//53 56//56 55//55
usemtl Aquanappe 
o tablette_basse_gauche 
f 57//57 59//59 58//58
f 57//57 60//60 59//59
usemtl MurBlanc 
o tablette_basse_gauche_rebord_haut 
f 61//61 63//63 62//62
f 61//61 64//64 63//63
usemtl MurBlanc 
o tablette_basse_gauche_rebord_bas 
f 65//65 67//67 66//66
f 65//65 68//68 67//67
usemtl Aquanappe 
o tablette_haute_gauche 
f 69//69 71//71 70//70
f 69//69 72//72 71//71
usemtl MurBlanc 
o tablette_haute_gauche_rebord_haut 
f 73//73 75//75 74//74
f 73//73 76//76 75//75
usemtl MurBlanc 
o tablette_haute_gauche_rebord_bas 
f 77//77 79//79 78//78
f 77//77 80//80 79//79
usemtl MiroirCaissonLampes 
o plateau_gauche_lampe_du_haut 
f 81//81 83//83 82//82
f 81//81 84//84 83//83
usemtl MiroirCaissonLampes 
o plateau_gauche_lampe_du_haut_rebord 
f 85//85 87//87 86//86
f 85//85 88//88 87//87
usemtl MurBlanc 
o tablette_gauche_lampe_du_haut_rebord 
f 89//89 91//91 90//90
f 89//89 92//92 91//91
usemtl Aquanappe 
o tablette_basse_droite 
f 93//93 95//95 94//94
f 93//93 96//96 95//95
usemtl MurBlanc 
o tablette_basse_droite_rebord_haut 
f 97//97 99//99 98//98
f 97//97 100//100 99//99
usemtl MurBlanc 
o tablette_basse_droite_rebord_bas 
f 101//101 103//103 102//102
f 101//101 104//104 103//103
usemtl Aquanappe 
o tablette_haute_droite 
f 105//105 107//107 106//106
f 105//105 108//108 107//107
usemtl MurBlanc 
o tablette_haute_droite_rebord_haut 
f 109//109 111//111 110//110
f 109//109 112//112 111//111
usemtl MurBlanc 
o tablette_haute_droite_rebord_bas 
f 113//113 115//115 114//114
f 113//113 116//116 115//115
usemtl MiroirCaissonLampes 
o plateau_droite_lampe_du_haut 
f 117//117 119//119 118//118
f 117//117 120//120 119//119
usemtl MiroirCaissonLampes 
o plateau_droite_lampe_du_haut_rebord 
f 121//121 123//123 122//122
f 121//121 124//124 123//123
usemtl jaune 
o anchor 
f 125//125 127//127 126//126
f 125//125 128//128 127//127
usemtl lamp32w 
o neon1(0.21, 0.85, -0.86) 
usemtl lamp32w 
o neon2(0.25, 0.85, -0.86) 
usemtl lamp32w 
o neon3(0.29, 0.85, -0.86) 
usemtl lamp32w 
o neon4(0.33, 0.85, -0.86) 
usemtl lamp32w 
o neon5(0.37, 0.85, -0.86) 
usemtl lamp32w 
o neon6(0.41, 0.85, -0.86) 
usemtl lamp32w 
o neon7(0.45, 0.85, 0.86) 
usemtl lamp32w 
o neon8(0.49, 0.85, 0.86) 
