# Blender v3.0.1 OBJ File: 'cornell.blend'
# www.blender.org
mtllib mesh.mtl
o floor
v 9.722885 0.000000 0.000000
v 0.000000 0.000000 0.000000
v 0.000000 -0.000000 9.835452
v 9.666602 -0.000000 9.835452
v 5.100646 -0.000000 2.005081
v 4.221224 -0.000000 4.784054
v 1.442251 -0.000000 3.957397
v 2.286496 -0.000000 1.143248
v 8.301741 -0.000000 7.140904
v 5.522768 -0.000000 8.020326
v 4.660935 -0.000000 5.206176
v 7.439907 -0.000000 4.344343
vn 0.0000 1.0000 0.0000
vn 0.0000 -1.0000 -0.0000
usemtl white
s off
f 2//1 4//1 1//1
f 6//2 8//2 5//2
f 9//2 11//2 12//2
f 2//1 3//1 4//1
f 6//2 7//2 8//2
f 9//2 10//2 11//2
o light
v 6.032833 9.638461 3.992575
v 6.032833 9.638461 5.839360
v 3.746336 9.638461 5.839360
v 3.746336 9.638461 3.992575
vn 0.0000 -1.0000 0.0000
usemtl light
s off
f 14//3 16//3 13//3
f 14//3 15//3 16//3
o ceiling
v 9.779169 9.652532 0.000000
v 9.779169 9.652532 9.835452
v 0.000000 9.652532 9.835452
v 0.000000 9.652532 0.000000
vn 0.0000 -1.0000 0.0000
usemtl white
s off
f 18//4 20//4 17//4
f 18//4 19//4 20//4
o back_wall
v 9.666602 -0.000000 9.835452
v 0.000000 -0.000000 9.835452
v 0.000000 9.652532 9.835452
v 9.779169 9.652532 9.835452
vn 0.0000 0.0000 -1.0000
usemtl white
s off
f 21//5 23//5 24//5
f 21//5 22//5 23//5
o green_wall
v 0.000000 -0.000000 9.835452
v 0.000000 0.000000 0.000000
v 0.000000 9.652532 0.000000
v 0.000000 9.652532 9.835452
vn 1.0000 0.0000 0.0000
usemtl green
s off
f 26//6 28//6 25//6
f 26//6 27//6 28//6
o red_wall
v 9.722885 0.000000 0.000000
v 9.666602 -0.000000 9.835452
v 9.779169 9.652532 9.835452
v 9.779169 9.652532 0.000000
vn -1.0000 0.0058 0.0000
vn -0.9999 0.0117 -0.0057
usemtl red
s off
f 29//7 31//7 32//7
f 29//8 30//8 31//8
o short_block
v 2.286496 2.902092 1.143248
v 1.442251 2.902091 3.957398
v 4.221224 2.902091 4.784054
v 5.100646 2.902092 2.005082
v 5.100646 -0.000000 2.005081
v 5.100646 2.902092 2.005082
v 4.221224 2.902091 4.784054
v 4.221224 -0.000000 4.784054
v 2.286496 -0.000000 1.143248
v 2.286496 2.902092 1.143248
v 5.100646 2.902092 2.005082
v 5.100646 -0.000000 2.005081
v 1.442251 -0.000000 3.957397
v 1.442251 2.902091 3.957398
v 2.286496 2.902092 1.143248
v 2.286496 -0.000000 1.143248
v 4.221224 -0.000000 4.784054
v 4.221224 2.902091 4.784054
v 1.442251 2.902091 3.957398
v 1.442251 -0.000000 3.957397
vn -0.0000 1.0000 0.0000
vn 0.9534 0.0000 0.3017
vn 0.2928 0.0000 -0.9562
vn -0.9578 0.0000 -0.2873
vn -0.2851 0.0000 0.9585
usemtl white
s off
f 33//9 35//9 36//9
f 38//10 40//10 37//10
f 42//11 44//11 41//11
f 46//12 48//12 45//12
f 50//13 52//13 49//13
f 33//9 34//9 35//9
f 38//10 39//10 40//10
f 42//11 43//11 44//11
f 46//12 47//12 48//12
f 50//13 51//13 52//13
o tall_block
v 7.439907 5.804183 4.344343
v 4.660935 5.804183 5.206177
v 5.522768 5.804183 8.020326
v 8.301741 5.804183 7.140904
v 7.439907 -0.000000 4.344343
v 7.439907 5.804183 4.344343
v 8.301741 5.804183 7.140904
v 8.301741 -0.000000 7.140904
v 8.301741 -0.000000 7.140904
v 8.301741 5.804183 7.140904
v 5.522768 5.804183 8.020326
v 5.522768 -0.000000 8.020326
v 5.522768 -0.000000 8.020326
v 5.522768 5.804183 8.020326
v 4.660935 5.804183 5.206177
v 4.660935 -0.000000 5.206176
v 4.660935 -0.000000 5.206176
v 4.660935 5.804183 5.206177
v 7.439907 5.804183 4.344343
v 7.439907 -0.000000 4.344343
vn 0.0000 1.0000 0.0000
vn 0.9556 -0.0000 -0.2945
vn 0.3017 -0.0000 0.9534
vn -0.9562 0.0000 0.2928
vn -0.2962 0.0000 -0.9551
usemtl white
s off
f 54//14 56//14 53//14
f 58//15 60//15 57//15
f 62//16 64//16 61//16
f 66//17 68//17 65//17
f 70//18 72//18 69//18
f 54//14 55//14 56//14
f 58//15 59//15 60//15
f 62//16 63//16 64//16
f 66//17 67//17 68//17
f 70//18 71//18 72//18
